#!OML:ASF H:\MichaelJackson\Top Level 1\Subject 1\Session 1\male.ASF
:FULLY-SPECIFIED
:DEGREES
172
root 5.85138 16.0372 -15.7035 11.9281 9.11545 -0.336167
lowerback 7.26529 -0.828141 -2.43001
upperback 0.968718 -1.34111 -1.60114
thorax -3.05483 -0.644258 -0.157374
lowerneck -8.71679 -3.11693 0.0494426
upperneck -5.96748 -4.01379 5.97247
head -0.27251 -1.99247 1.75517
rclavicle 2.82274e-014 1.82882e-014
rhumerus -11.8536 3.31714 -30.0106
rradius 114.299
rwrist -6.78653
rhand -39.8329 -40.1974
rfingers 7.12502
rthumb -12.8067 -69.7845
lclavicle 2.82274e-014 1.82882e-014
lhumerus 3.36577 -23.0939 40.1216
lradius 104.766
lwrist 39.8695
lhand -29.1324 -2.68406
lfingers 7.12502
lthumb -2.47954 27.2813
rfemur -41.9939 -2.75701 18.371
rtibia 60.7447
rfoot -16.7695 -10.3665
rtoes -17.8397
lfemur -30.3942 -5.88903 -17.024
ltibia 59.9288
lfoot -29.561 -0.243126
ltoes -8.06426
173
root 5.82118 16.3741 -15.4569 11.4026 9.15972 -0.769894
lowerback 6.14943 -0.88091 -2.38154
upperback 0.753331 -1.37099 -1.48725
thorax -2.65143 -0.662751 -0.0813645
lowerneck -8.66702 -3.18399 0.012598
upperneck -4.29654 -4.18399 6.15399
head 0.255263 -2.04088 1.79946
rclavicle 1.23246e-014 0
rhumerus -11.367 4.10094 -26.4449
rradius 115.825
rwrist -5.8563
rhand -39.6207 -38.6153
rfingers 7.12502
rthumb -12.6022 -68.2152
lclavicle 1.23246e-014 0
lhumerus 4.51502 -21.6763 37.0881
lradius 105.901
lwrist 40.4821
lhand -29.615 -3.77442
lfingers 7.12502
lthumb -2.9457 26.185
rfemur -38.7951 -3.05132 19.0672
rtibia 57.0248
rfoot -14.2471 -8.63752
rtoes -17.9024
lfemur -27.1651 -5.05565 -16.3619
ltibia 55.5959
lfoot -26.6798 -2.90783
ltoes -6.43492
174
root 5.79866 16.7241 -15.2079 10.9288 9.10329 -1.24848
lowerback 5.01184 -0.90812 -2.25028
upperback 0.518589 -1.36315 -1.33341
thorax -2.25601 -0.662787 -0.0151162
lowerneck -8.75888 -3.26246 -0.0466328
upperneck -2.43283 -4.38657 6.28809
head 0.874053 -2.09659 1.8333
rclavicle 9.34288e-015 -1.59028e-014
rhumerus -10.7264 5.10432 -22.9995
rradius 117.165
rwrist -5.03866
rhand -39.2011 -36.4436
rfingers 7.12502
rthumb -12.1975 -66.068
lclavicle 9.34288e-015 -1.59028e-014
lhumerus 5.37191 -20.5176 34.3206
lradius 106.814
lwrist 40.7972
lhand -29.8383 -4.71159
lfingers 7.12502
lthumb -3.16131 25.2447
rfemur -35.8127 -3.47899 19.6988
rtibia 53.3475
rfoot -11.0592 -6.31554
rtoes -17.5886
lfemur -24.1478 -4.21858 -15.6829
ltibia 51.3867
lfoot -22.9434 -5.51486
ltoes -4.25219
175
root 5.78409 17.0804 -14.9617 10.5637 8.93765 -1.74685
lowerback 3.83786 -0.905986 -2.0383
upperback 0.26555 -1.31578 -1.15255
thorax -1.85972 -0.643243 0.0304889
lowerneck -8.98013 -3.34672 -0.0908645
upperneck -0.476015 -4.61024 6.35942
head 1.5553 -2.15757 1.84603
rclavicle -1.25234e-014 -7.95139e-016
rhumerus -9.98143 6.15 -19.8091
rradius 118.335
rwrist -4.33722
rhand -38.5183 -33.8137
rfingers 7.12502
rthumb -11.5391 -63.4761
lclavicle -1.25234e-014 -7.95139e-016
lhumerus 5.9512 -19.5735 31.7893
lradius 107.579
lwrist 40.8471
lhand -29.721 -5.40941
lfingers 7.12502
lthumb -3.04806 24.5485
rfemur -33.1865 -4.07165 20.229
rtibia 49.8011
rfoot -7.01721 -3.5302
rtoes -16.6031
lfemur -21.4667 -3.3543 -15.0323
ltibia 47.4146
lfoot -18.2158 -7.67455
ltoes -1.66597
